inDegrees=no
num_controls=7
num_derivatives=13
num_iterations=32
num_multipliers=7
num_parameters=0
num_slacks=7
num_states=26
objective=0.472802
objective_accelerations=0.051686
objective_balance=0.001000
objective_effort=0.014821
objective_height=0.396034
objective_ligament=0.009260
solver_duration=526.210747
status=Solve_Succeeded
success=true
DataType=double
version=3
OpenSimVersion=4.5
endheader
time	/jointset/ground_pelvis/pelvis_tilt/value	/jointset/ground_pelvis/pelvis_tx/value	/jointset/ground_pelvis/pelvis_ty/value	/jointset/hip_l/hip_flexion_l/value	/jointset/hip_l/hip_adduction_l/value	/jointset/hip_l/hip_rotation_l/value	/jointset/back/lumbar_extension/value	/jointset/patellofemoral_l/patellar_flexion_l/value	/jointset/knee_l/knee_flexion_l/value	/jointset/knee_l/knee_adduction_l/value	/jointset/knee_l/knee_rotation_l/value	/jointset/ankle_l/ankle_angle_l/value	/jointset/subtalar_l/subtalar_angle_l/value	/jointset/ground_pelvis/pelvis_tilt/speed	/jointset/ground_pelvis/pelvis_tx/speed	/jointset/ground_pelvis/pelvis_ty/speed	/jointset/hip_l/hip_flexion_l/speed	/jointset/hip_l/hip_adduction_l/speed	/jointset/hip_l/hip_rotation_l/speed	/jointset/back/lumbar_extension/speed	/jointset/patellofemoral_l/patellar_flexion_l/speed	/jointset/knee_l/knee_flexion_l/speed	/jointset/knee_l/knee_adduction_l/speed	/jointset/knee_l/knee_rotation_l/speed	/jointset/ankle_l/ankle_angle_l/speed	/jointset/subtalar_l/subtalar_angle_l/speed	/forceset/tau_hip_flexion_l	/forceset/tau_hip_adduction_l	/forceset/tau_hip_rotation_l	/forceset/tau_knee_flexion_l	/forceset/tau_ankle_angle_l	/forceset/tau_subtalar_angle_l	/forceset/tau_lumbar_extension	lambda_cid13_p0	lambda_cid13_p1	lambda_cid13_p2	lambda_cid13_p3	lambda_cid13_p4	lambda_cid13_p5	lambda_cid14_p0	/jointset/ground_pelvis/pelvis_tilt/accel	/jointset/ground_pelvis/pelvis_tx/accel	/jointset/ground_pelvis/pelvis_ty/accel	/jointset/hip_l/hip_flexion_l/accel	/jointset/hip_l/hip_adduction_l/accel	/jointset/hip_l/hip_rotation_l/accel	/jointset/back/lumbar_extension/accel	/jointset/patellofemoral_l/patellar_flexion_l/accel	/jointset/knee_l/knee_flexion_l/accel	/jointset/knee_l/knee_adduction_l/accel	/jointset/knee_l/knee_rotation_l/accel	/jointset/ankle_l/ankle_angle_l/accel	/jointset/subtalar_l/subtalar_angle_l/accel	gamma_cid13_p0	gamma_cid13_p1	gamma_cid13_p2	gamma_cid13_p3	gamma_cid13_p4	gamma_cid13_p5	gamma_cid14_p0
0.5	-0.1616757833616394	0.05225044298344034	0.7974985330113022	0.8438930269227145	-0.3668078808204388	-0.02780255011636319	-0.3942004732925922	0.8738129235206953	0.8738129235206537	-0.04789528522960226	-0.1744235331127103	0.3130773912671472	0.1589920045841209	-0.6197208293209672	-0.1300700003427264	-0.4179102801317041	1.997251418182832	-0.001131873396270332	0.5306193349786349	-0.3192169986785496	1.765531449298634	1.765531449298646	0.1978374441690032	0.002342533322053645	0.5308526369064126	0.2167346372870902	-0.08405595845004468	0.08064660953240532	0.001385129057872599	-0.1939914073781813	0.001839136772273103	-0.02222013602165029	0.1046293343825952	-27.33186111546177	18.67959612415305	-8.106466456863263	3.096262383479931	-444.9241962026118	-24.14279184621013	-8.070074017420009	0.1248186790607382	0.2307149464560179	-0.3471826769021188	-0.9296752637655968	0.1626188458518758	-0.54865882083168	1.249018892827573	-1.467235941085865	-1.467235941085849	-0.267769066855878	0.02879364370069517	-0.7897203995258625	0.1309720057731862	-3.104127828605056e-07	-1.638857664287407e-06	3.363537673748037e-06	-3.916572246883364e-08	-7.115956497590486e-07	-1.96814841815203e-06	-5.389491861191758e-07
0.51	-0.1678650366410078	0.05096155299341514	0.7933030957983049	0.8638147240564791	-0.3668131821750576	-0.02252184857250385	-0.3973307411239065	0.8913916095959857	0.8913916095959553	-0.04593610755001003	-0.1744000126716916	0.3183450164198171	0.1611623374263491	-0.6180422709324782	-0.1276868881560753	-0.4210830750322512	1.986805647280159	6.173576154656006e-05	0.5255104910442204	-0.3068009139944093	1.749958220953961	1.749958220953973	0.1939530356029177	0.00236930185428841	0.5226049527965274	0.2172828616414448	-0.08803464028208136	0.08209996421726654	0.0008560813638607913	-0.1956791420231439	7.798533901736677e-05	-0.02142294361295946	0.1077183908411792	-28.02325219958714	18.61739279539053	-8.282689389240652	3.226434589324273	-447.475151168779	-24.05829375405463	-7.354690132470204	0.2024739687676767	0.2452657186909754	-0.2883577530842993	-1.14442711051792	0.09585577687512042	-0.4940964275946195	1.24325129454903	-1.639387649394484	-1.639387649394337	-0.4556993963792638	-0.008642705731335541	-0.8524920137606159	0.00925661670266284	-3.089514829009906e-07	-1.607363855319873e-06	3.394367963201633e-06	-3.435367215151034e-08	-7.020004590641724e-07	-1.901411004343384e-06	-5.435963357280587e-07
0.52	-0.1740348844264854	0.0496971253980402	0.7890787246650113	0.8836234836598315	-0.3668069226728686	-0.01729265531757294	-0.4003357785007052	0.9088071591141735	0.9088071591141703	-0.04401715848502562	-0.1743758767780889	0.3235281248119873	0.1633366543054077	-0.6158397305429789	-0.125177521412674	-0.423697064190812	1.974663912097501	0.001180297964525863	0.5203176771958725	-0.2941709077765748	1.732904137879833	1.732904137879848	0.1897917212410554	0.002465623837879882	0.5139492848050117	0.2175314446532421	-0.09201332211397502	0.08355331890202584	0.0003270336699231794	-0.1973668766680977	-0.001683166094273977	-0.02062575120442183	0.1108074472999155	-28.71133747460643	18.5446711360509	-8.445880905975615	3.329358951978271	-449.983381412909	-24.06090317552236	-6.678003677441903	0.2296150792626727	0.2559658578060906	-0.2354215285048432	-1.268868119762277	0.1476094548843126	-0.5654528036185116	1.291803199566387	-1.763406886976514	-1.76340688697651	-0.3231502260112166	0.04270433397182492	-0.8713171758519224	0.07104373726166631	-3.013914525931857e-07	-1.349455000370326e-06	3.381391641926056e-06	-2.113925139486309e-09	-6.76021423564391e-07	-1.675159174921485e-06	-5.270985516782473e-07
0.53	-0.1801802928783044	0.04845838468936986	0.7848310499562083	0.9033026528322515	-0.366789589006401	-0.01211630033183931	-0.4032134754863181	0.926044890990124	0.9260448909901332	-0.0421403835147212	-0.174350563657218	0.328622754856318	0.1655123008870057	-0.6131651380464365	-0.12255260277147	-0.425738169966713	1.960896374750457	0.002289216033094041	0.5148318927473364	-0.2813456937472432	1.714395085464125	1.714395085464149	0.1856214636663232	0.002551375300445187	0.50491458478041	0.2175673564300424	-0.09584789100727002	0.084787891365587	-0.0001619652395209564	-0.1994391081472582	-0.00311220637818909	-0.01995918250061937	0.1137773648515611	-29.31653348270116	18.53218579778877	-8.639260155289996	3.406101290598692	-452.6670597180179	-24.02887327850087	-6.040405737395528	0.2978742202295093	0.2684604639064579	-0.1736314368626816	-1.471770291773081	0.09251789117595409	-0.5588427150718102	1.281299844302787	-1.931623509141694	-1.931623509140218	-0.45534481451483	-0.01474427548242997	-0.9289309856891413	-0.03492222089441829	-2.917965705746819e-07	-1.111256310264262e-06	3.340431415451697e-06	2.613959195030874e-08	-6.477159178397311e-07	-1.461024139708534e-06	-5.079670416925181e-07
0.54	-0.186296656828082	0.04724643428643681	0.7805659289226999	0.9228359318812935	-0.3667611691775782	-0.006998543480525392	-0.4059622364636951	0.9430901385238634	0.9430901385238802	-0.04030358737843188	-0.1743256439872675	0.3336251609864253	0.1676873491626146	-0.6100308301346927	-0.1198194602652155	-0.4271863291316976	1.945485887419513	0.003397530434998585	0.5085980503147752	-0.2683837061304379	1.694407269437469	1.694407269437504	0.1817959544391658	0.002386933647764391	0.4955045019588145	0.2174117834554985	-0.09968245990043931	0.08602246382905113	-0.0006509641490349214	-0.2015113396264117	-0.004541246662138736	-0.01929261379696695	0.116747282403341	-29.91894547714138	18.50962749601359	-8.820082707662619	3.455834275694666	-455.3160661509355	-24.08095255362425	-5.441953011417811	0.321558162302793	0.2776106308162372	-0.1168322063215681	-1.597458116542225	0.1474887215515381	-0.7150644004236901	1.319157917061101	-2.059159609165868	-2.059159609165828	-0.2542005564962096	-0.007334289077592795	-0.946393735250612	0.03274678699278012	-2.799503632592347e-07	-8.948646110488628e-07	3.268510272587196e-06	4.998281210487169e-08	-6.168364450577584e-07	-1.260294919365057e-06	-4.859216221606672e-07
